<mxfile host="app.diagrams.net" agent="Mozilla/5.0 (X11; Linux x86_64; rv:143.0) Gecko/20100101 Firefox/143.0" version="28.2.5">
  <diagram name="Page-1" id="rXgSQBenx7Usb9xbynZ-">
    <mxGraphModel dx="965" dy="570" grid="1" gridSize="10" guides="1" tooltips="1" connect="1" arrows="1" fold="1" page="1" pageScale="1" pageWidth="850" pageHeight="1100" math="0" shadow="0">
      <root>
        <mxCell id="0" />
        <mxCell id="1" parent="0" />
        <mxCell id="4PuWCO988lotno0uVw_v-28" value="OPV Design Tool" style="rounded=1;whiteSpace=wrap;html=1;fillColor=none;dashed=1;labelPosition=center;verticalLabelPosition=top;align=center;verticalAlign=bottom;" vertex="1" parent="1">
          <mxGeometry x="50" y="160" width="640" height="300" as="geometry" />
        </mxCell>
        <mxCell id="4PuWCO988lotno0uVw_v-27" style="edgeStyle=orthogonalEdgeStyle;rounded=0;orthogonalLoop=1;jettySize=auto;html=1;entryX=1;entryY=0.5;entryDx=0;entryDy=0;startArrow=classic;startFill=1;" edge="1" parent="1" source="4PuWCO988lotno0uVw_v-1" target="4PuWCO988lotno0uVw_v-5">
          <mxGeometry relative="1" as="geometry" />
        </mxCell>
        <mxCell id="4PuWCO988lotno0uVw_v-1" value="&lt;div&gt;User&lt;/div&gt;" style="shape=umlActor;verticalLabelPosition=bottom;verticalAlign=top;html=1;outlineConnect=0;" vertex="1" parent="1">
          <mxGeometry x="740" y="277.5" width="30" height="60" as="geometry" />
        </mxCell>
        <mxCell id="4PuWCO988lotno0uVw_v-15" style="edgeStyle=orthogonalEdgeStyle;rounded=0;orthogonalLoop=1;jettySize=auto;html=1;exitX=0;exitY=0.25;exitDx=0;exitDy=0;entryX=1;entryY=0.25;entryDx=0;entryDy=0;" edge="1" parent="1" source="4PuWCO988lotno0uVw_v-5" target="4PuWCO988lotno0uVw_v-14">
          <mxGeometry relative="1" as="geometry" />
        </mxCell>
        <mxCell id="4PuWCO988lotno0uVw_v-17" value="Send Prompts" style="edgeLabel;html=1;align=center;verticalAlign=middle;resizable=0;points=[];" vertex="1" connectable="0" parent="4PuWCO988lotno0uVw_v-15">
          <mxGeometry x="0.0768" relative="1" as="geometry">
            <mxPoint as="offset" />
          </mxGeometry>
        </mxCell>
        <mxCell id="4PuWCO988lotno0uVw_v-5" value="&lt;div&gt;Front End&amp;nbsp;&lt;/div&gt;&lt;div&gt;Web App&lt;/div&gt;" style="rounded=1;whiteSpace=wrap;html=1;" vertex="1" parent="1">
          <mxGeometry x="570" y="185" width="80" height="245" as="geometry" />
        </mxCell>
        <mxCell id="4PuWCO988lotno0uVw_v-16" style="edgeStyle=orthogonalEdgeStyle;rounded=0;orthogonalLoop=1;jettySize=auto;html=1;exitX=1;exitY=0.75;exitDx=0;exitDy=0;entryX=0;entryY=0.75;entryDx=0;entryDy=0;" edge="1" parent="1" source="4PuWCO988lotno0uVw_v-14" target="4PuWCO988lotno0uVw_v-5">
          <mxGeometry relative="1" as="geometry" />
        </mxCell>
        <mxCell id="4PuWCO988lotno0uVw_v-18" value="Receive Response" style="edgeLabel;html=1;align=center;verticalAlign=middle;resizable=0;points=[];" vertex="1" connectable="0" parent="4PuWCO988lotno0uVw_v-16">
          <mxGeometry x="-0.1339" y="1" relative="1" as="geometry">
            <mxPoint x="11" as="offset" />
          </mxGeometry>
        </mxCell>
        <mxCell id="4PuWCO988lotno0uVw_v-37" style="edgeStyle=orthogonalEdgeStyle;rounded=0;orthogonalLoop=1;jettySize=auto;html=1;exitX=0;exitY=0.25;exitDx=0;exitDy=0;entryX=1;entryY=0.25;entryDx=0;entryDy=0;" edge="1" parent="1" source="4PuWCO988lotno0uVw_v-14" target="4PuWCO988lotno0uVw_v-20">
          <mxGeometry relative="1" as="geometry" />
        </mxCell>
        <mxCell id="4PuWCO988lotno0uVw_v-38" value="Design Parameters" style="edgeLabel;html=1;align=center;verticalAlign=middle;resizable=0;points=[];" vertex="1" connectable="0" parent="4PuWCO988lotno0uVw_v-37">
          <mxGeometry x="0.0036" y="-1" relative="1" as="geometry">
            <mxPoint as="offset" />
          </mxGeometry>
        </mxCell>
        <mxCell id="4PuWCO988lotno0uVw_v-14" value="&lt;div&gt;Large Language Model (LLM)&lt;/div&gt;&lt;div&gt;Interface&lt;/div&gt;" style="rounded=1;whiteSpace=wrap;html=1;" vertex="1" parent="1">
          <mxGeometry x="330" y="185" width="80" height="245" as="geometry" />
        </mxCell>
        <mxCell id="4PuWCO988lotno0uVw_v-39" style="edgeStyle=orthogonalEdgeStyle;rounded=0;orthogonalLoop=1;jettySize=auto;html=1;exitX=1;exitY=0.75;exitDx=0;exitDy=0;entryX=0;entryY=0.75;entryDx=0;entryDy=0;" edge="1" parent="1" source="4PuWCO988lotno0uVw_v-20" target="4PuWCO988lotno0uVw_v-14">
          <mxGeometry relative="1" as="geometry" />
        </mxCell>
        <mxCell id="4PuWCO988lotno0uVw_v-40" value="Generated Design" style="edgeLabel;html=1;align=center;verticalAlign=middle;resizable=0;points=[];" vertex="1" connectable="0" parent="4PuWCO988lotno0uVw_v-39">
          <mxGeometry x="-0.0095" y="1" relative="1" as="geometry">
            <mxPoint as="offset" />
          </mxGeometry>
        </mxCell>
        <mxCell id="4PuWCO988lotno0uVw_v-20" value="OPV Design Model" style="rounded=1;whiteSpace=wrap;html=1;" vertex="1" parent="1">
          <mxGeometry x="90" y="185" width="80" height="245" as="geometry" />
        </mxCell>
      </root>
    </mxGraphModel>
  </diagram>
</mxfile>
